<svg width="6522" height="7423" viewBox="0 0 6522 7423" fill="none" xmlns="http://www.w3.org/2000/svg">
<path d="M87.7317 4386.25C-22.9191 4295.42 -12.0017 4026.84 28.826 3887.18C103.337 3632.3 356.92 3667.52 523.956 3870.45C651.292 4025.16 814.367 4206.93 1022.72 4411.7C1269.23 4653.97 1606.3 4438.62 1485.41 4110.28C1265.12 3512.01 948.325 2888.76 661.459 2404.34C496.699 2126.12 688.574 1735.66 1004.63 1735.66H1902.3C2106.58 1735.66 2273.56 1903.75 2278.55 2114.41L2397.78 7146.54C2401.04 7284.4 2293.6 7397.97 2159.92 7397.97C2045.64 7397.97 1948.18 7313.81 1921.64 7199.13C1641.58 5988.93 892.428 5046.81 87.7317 4386.25Z" fill="white"/>
<path d="M6433.61 4385.04C6545.1 4293.56 6534.09 4023 6492.96 3882.31C6417.92 3625.65 6162.6 3661.13 5994.37 3865.46C5865.04 4022.52 5699.12 4207.31 5486.73 4415.61C5239.99 4657.6 4902.7 4442.05 5023.33 4113.63C5246.04 3507.26 5567.78 2874.79 5858.54 2384.58C6023.5 2106.45 5831.7 1716 5515.61 1716H4603.07C4398.8 1716 4231.82 1884.09 4226.83 2094.74L4106.67 7164.35C4103.37 7303.22 4211.61 7417.63 4346.27 7417.63C4461.39 7417.63 4559.57 7332.86 4586.31 7217.35C4868.44 5998.8 5623.04 5050.17 6433.61 4385.04Z" fill="white"/>
<path d="M2784.22 2109.84C2784.22 1895.43 2952.72 1721.61 3160.57 1721.61H3362.24C3570.09 1721.61 3738.59 1895.43 3738.59 2109.85V7034.77C3738.59 7249.18 3570.09 7423 3362.24 7423H3160.57C2952.72 7423 2784.22 7249.18 2784.22 7034.77V2109.84Z" fill="white"/>
<path d="M693.54 1409.51C652.373 1409.51 619 1384.52 619 1353.68V56.6294C619 25.7959 652.373 0.800405 693.54 0.800405H1197.2C1293.57 0.800405 1366.38 17.3421 1415.64 50.4255C1464.89 82.9753 1497.73 128.865 1514.15 188.095C1531.28 246.791 1539.84 315.893 1539.84 395.4C1539.84 472.239 1526.64 533.603 1500.23 579.493C1492.46 593.369 1464.35 605.514 1426.93 616.193C1355.42 636.601 1357.59 696.512 1428.85 717.401C1453.97 724.761 1472.09 732.73 1477.74 741.175C1502.01 775.859 1514.15 820.949 1514.15 876.443V1353.68C1514.15 1384.52 1480.77 1409.51 1439.61 1409.51H1217.14C1175.97 1409.51 1142.6 1384.52 1142.6 1353.68V858.034C1142.6 816.947 1131.18 791.6 1108.33 781.995C1099.29 777.852 1087.92 774.555 1074.23 772.105C1034.19 764.941 1000.19 791.783 1000.19 822.617V1353.68C1000.19 1384.52 966.814 1409.51 925.647 1409.51H693.54ZM1002.33 466.835C1002.33 497.669 1035.7 522.664 1076.87 522.664H1093.34C1145.45 522.664 1171.51 480.243 1171.51 395.4C1171.51 340.439 1165.8 304.421 1154.37 287.345C1142.95 270.27 1121.54 261.732 1090.13 261.732H1076.87C1035.7 261.732 1002.33 286.728 1002.33 317.561V466.835Z" fill="white"/>
<path d="M1738.59 1409.51C1697.42 1409.51 1664.05 1384.52 1664.05 1353.68V56.6294C1664.05 25.7959 1697.42 0.800405 1738.59 0.800405H2343.32C2384.49 0.800405 2417.86 25.7959 2417.86 56.6294V217.109C2417.86 247.942 2384.49 272.938 2343.32 272.938H2121.92C2080.75 272.938 2047.38 297.934 2047.38 328.767V491.648C2047.38 522.481 2080.75 547.477 2121.92 547.477H2328.33C2369.5 547.477 2402.87 572.472 2402.87 603.306V756.582C2402.87 787.415 2369.5 812.411 2328.33 812.411H2121.92C2080.75 812.411 2047.38 837.406 2047.38 868.24V1079.15C2047.38 1109.98 2080.75 1134.97 2121.92 1134.97H2367.95C2409.11 1134.97 2442.49 1159.97 2442.49 1190.8V1353.68C2442.49 1384.52 2409.11 1409.51 2367.95 1409.51H1738.59Z" fill="white"/>
<path d="M2807.13 1409.51C2769.49 1409.51 2737.76 1388.5 2733.15 1360.53L2519.2 62.67C2513.72 29.3756 2548.39 0 2593.18 0H2797.74C2837.02 0 2869.56 22.8318 2872.13 52.19L2918.41 582.934C2924.44 652.04 3059.8 652.741 3067.1 583.703L3123.4 51.4201C3126.47 22.3874 3158.82 0 3197.71 0H3403.23C3448.02 0 3482.7 29.3756 3477.21 62.67L3263.26 1360.53C3258.65 1388.5 3226.92 1409.51 3189.28 1409.51H2807.13Z" fill="white"/>
<path d="M3655.23 1409.51C3614.07 1409.51 3580.69 1384.52 3580.69 1353.68V56.6294C3580.69 25.7959 3614.07 0.800405 3655.23 0.800405H3870.21C3911.38 0.800405 3944.75 25.7959 3944.75 56.6294V1353.68C3944.75 1384.52 3911.38 1409.51 3870.21 1409.51H3655.23Z" fill="white"/>
<path d="M4334.02 1409.51C4296.38 1409.51 4264.65 1388.5 4260.04 1360.53L4046.09 62.67C4040.6 29.3756 4075.28 0 4120.07 0H4325.39C4364.36 0 4396.75 22.4808 4399.72 51.5826L4453.9 583.554C4460.93 652.607 4596.29 652.202 4602.59 583.11L4650.98 52.0272C4653.65 22.7375 4686.15 0 4725.35 0H4930.12C4974.91 0 5009.58 29.3756 5004.1 62.67L4790.15 1360.53C4785.54 1388.5 4753.81 1409.51 4716.17 1409.51H4334.02Z" fill="white"/>
<path d="M5199.25 1409.51C5158.09 1409.51 5124.71 1384.52 5124.71 1353.68V56.6294C5124.71 25.7959 5158.09 0.800405 5199.25 0.800405H5803.98C5845.15 0.800405 5878.52 25.7959 5878.52 56.6294V217.109C5878.52 247.942 5845.15 272.938 5803.98 272.938H5582.58C5541.41 272.938 5508.04 297.934 5508.04 328.767V491.648C5508.04 522.481 5541.41 547.477 5582.58 547.477H5788.99C5830.16 547.477 5863.53 572.472 5863.53 603.306V756.582C5863.53 787.415 5830.16 812.411 5788.99 812.411H5582.58C5541.41 812.411 5508.04 837.406 5508.04 868.24V1079.15C5508.04 1109.98 5541.41 1134.97 5582.58 1134.97H5828.61C5869.78 1134.97 5903.15 1159.97 5903.15 1190.8V1353.68C5903.15 1384.52 5869.78 1409.51 5828.61 1409.51H5199.25Z" fill="white"/>
</svg>
