<svg width="2936" height="588" viewBox="0 0 2936 588" fill="none" xmlns="http://www.w3.org/2000/svg">
<path d="M2273.94 274.745C2262.56 265.4 2263.68 237.765 2267.88 223.395C2275.55 197.171 2301.64 200.794 2318.83 221.674C2331.93 237.592 2348.71 256.294 2370.15 277.363C2395.51 302.291 2430.2 280.133 2417.76 246.35C2395.09 184.794 2362.49 120.666 2332.98 70.8245C2316.02 42.1982 2335.77 2.02296 2368.29 2.02296H2460.65C2481.67 2.02296 2498.85 19.3179 2499.37 40.9925L2511.63 558.755C2511.97 572.939 2500.92 584.625 2487.16 584.625C2475.4 584.625 2465.37 575.965 2462.64 564.166C2433.83 439.647 2356.74 342.711 2273.94 274.745Z" fill="white"/>
<path d="M2926.91 274.621C2938.38 265.208 2937.24 237.37 2933.01 222.894C2925.29 196.486 2899.02 200.137 2881.71 221.16C2868.4 237.321 2851.33 256.333 2829.47 277.766C2804.09 302.665 2769.38 280.487 2781.79 246.695C2804.71 184.305 2837.81 119.229 2867.73 68.7913C2884.71 40.1741 2864.97 0 2832.45 0H2738.55C2717.53 0 2700.35 17.2947 2699.84 38.9691L2687.47 560.587C2687.13 574.876 2698.27 586.648 2712.13 586.648C2723.97 586.648 2734.07 577.925 2736.83 566.04C2765.86 440.662 2843.5 343.057 2926.91 274.621Z" fill="white"/>
<path d="M2551.4 40.5232C2551.4 18.4618 2568.74 0.577621 2590.12 0.577621H2610.87C2632.26 0.577621 2649.6 18.4619 2649.6 40.5232V547.254C2649.6 569.316 2632.26 587.2 2610.87 587.2H2590.12C2568.74 587.2 2551.4 569.316 2551.4 547.254V40.5232Z" fill="white"/>
<path d="M31.0532 587.2C13.903 587.2 0 576.787 0 563.942V23.5917C0 10.7465 13.903 0.333447 31.0532 0.333447H240.879C281.025 0.333447 311.358 7.22468 331.877 21.0072C352.397 34.5673 366.076 53.6849 372.916 78.36C380.053 102.813 383.622 131.6 383.622 164.723C383.622 196.734 378.12 222.298 367.117 241.416C363.88 247.196 352.173 252.256 336.584 256.705C306.792 265.207 307.694 290.165 337.383 298.867C347.845 301.934 355.396 305.254 357.75 308.772C367.861 323.221 372.916 342.005 372.916 365.124V563.942C372.916 576.787 359.013 587.2 341.863 587.2H249.182C232.032 587.2 218.129 576.787 218.129 563.942V357.455C218.129 340.338 213.371 329.779 203.855 325.778C200.087 324.051 195.351 322.678 189.646 321.657C172.966 318.673 158.802 329.855 158.802 342.7V563.942C158.802 576.787 144.899 587.2 127.748 587.2H31.0532ZM159.694 194.483C159.694 207.328 173.597 217.741 190.747 217.741H197.61C219.319 217.741 230.173 200.068 230.173 164.723C230.173 141.826 227.794 126.821 223.036 119.707C218.278 112.594 209.356 109.037 196.272 109.037H190.747C173.597 109.037 159.694 119.45 159.694 132.295V194.483Z" fill="white"/>
<path d="M466.419 587.2C449.269 587.2 435.366 576.787 435.366 563.942V23.5917C435.366 10.7465 449.269 0.333447 466.419 0.333447H718.348C735.498 0.333447 749.401 10.7465 749.401 23.5917V90.4471C749.401 103.292 735.498 113.705 718.348 113.705H626.113C608.963 113.705 595.06 124.118 595.06 136.964V204.819C595.06 217.665 608.963 228.078 626.113 228.078H712.103C729.253 228.078 743.156 238.491 743.156 251.336V315.19C743.156 328.036 729.253 338.449 712.103 338.449H626.113C608.963 338.449 595.06 348.862 595.06 361.707V449.57C595.06 462.415 608.963 472.828 626.113 472.828H728.607C745.757 472.828 759.66 483.241 759.66 496.086V563.942C759.66 576.787 745.757 587.2 728.607 587.2H466.419Z" fill="white"/>
<path d="M911.569 587.2C895.891 587.2 882.671 578.446 880.75 566.792L791.621 26.1082C789.334 12.2378 803.78 0 822.44 0H907.66C924.024 0 937.58 9.51168 938.647 21.7423L957.93 242.849C960.441 271.638 1016.83 271.93 1019.87 243.17L1043.33 21.4215C1044.61 9.32654 1058.08 0 1074.28 0H1159.9C1178.56 0 1193.01 12.2378 1190.72 26.1082L1101.59 566.792C1099.67 578.446 1086.45 587.2 1070.77 587.2H911.569Z" fill="white"/>
<path d="M1264.89 587.2C1247.74 587.2 1233.83 576.787 1233.83 563.942V23.5917C1233.83 10.7465 1247.74 0.333447 1264.89 0.333447H1354.45C1371.6 0.333447 1385.5 10.7465 1385.5 23.5917V563.942C1385.5 576.787 1371.6 587.2 1354.45 587.2H1264.89Z" fill="white"/>
<path d="M1547.67 587.2C1531.99 587.2 1518.77 578.446 1516.85 566.792L1427.72 26.1082C1425.43 12.2378 1439.88 0 1458.54 0H1544.07C1560.31 0 1573.8 9.36545 1575.04 21.4892L1597.61 243.107C1600.54 271.875 1656.93 271.706 1659.55 242.922L1679.72 21.6744C1680.83 9.47237 1694.37 0 1710.7 0H1796C1814.66 0 1829.11 12.2378 1826.82 26.1082L1737.69 566.792C1735.77 578.446 1722.55 587.2 1706.87 587.2H1547.67Z" fill="white"/>
<path d="M1908.12 587.2C1890.97 587.2 1877.07 576.787 1877.07 563.942V23.5917C1877.07 10.7465 1890.97 0.333447 1908.12 0.333447H2160.05C2177.2 0.333447 2191.1 10.7465 2191.1 23.5917V90.4471C2191.1 103.292 2177.2 113.705 2160.05 113.705H2067.82C2050.67 113.705 2036.76 124.118 2036.76 136.964V204.819C2036.76 217.665 2050.67 228.078 2067.82 228.078H2153.81C2170.96 228.078 2184.86 238.491 2184.86 251.336V315.19C2184.86 328.036 2170.96 338.449 2153.81 338.449H2067.82C2050.67 338.449 2036.76 348.862 2036.76 361.707V449.57C2036.76 462.415 2050.67 472.828 2067.82 472.828H2170.31C2187.46 472.828 2201.36 483.241 2201.36 496.086V563.942C2201.36 576.787 2187.46 587.2 2170.31 587.2H1908.12Z" fill="white"/>
</svg>
